<svg width="14" height="14" viewBox="0 0 14 14" fill="none" xmlns="http://www.w3.org/2000/svg">
<path fill-rule="evenodd" clip-rule="evenodd" d="M3.32447 4.08334L5.89032 1.6244C6.51081 1.02976 7.48969 1.02976 8.11018 1.6244L10.676 4.08334H12.161C12.516 4.08334 12.7887 4.39775 12.7385 4.74917L11.8816 10.7475C11.7584 11.6096 11.02 12.25 10.1492 12.25H3.85136C2.98047 12.25 2.24211 11.6096 2.11895 10.7475L1.26205 4.74917C1.21184 4.39775 1.48453 4.08334 1.83952 4.08334H3.32447ZM6.49574 2.25614C6.77778 1.98585 7.22272 1.98585 7.50477 2.25614L9.41141 4.08334H4.58909L6.49574 2.25614ZM2.17581 4.95834L2.98515 10.6237C3.04674 11.0548 3.41592 11.375 3.85136 11.375H10.1492C10.5846 11.375 10.9538 11.0548 11.0154 10.6238L11.8247 4.95834H2.17581Z" fill="white"/>
<path fill-rule="evenodd" clip-rule="evenodd" d="M4.6669 6.5625C4.90853 6.5625 5.1044 6.75838 5.1044 7V9.33333C5.1044 9.57496 4.90853 9.77083 4.6669 9.77083C4.42528 9.77083 4.2294 9.57496 4.2294 9.33333V7C4.2294 6.75838 4.42528 6.5625 4.6669 6.5625Z" fill="white"/>
<path fill-rule="evenodd" clip-rule="evenodd" d="M7.00024 6.5625C7.24187 6.5625 7.43774 6.75838 7.43774 7V9.33333C7.43774 9.57496 7.24187 9.77083 7.00024 9.77083C6.75862 9.77083 6.56274 9.57496 6.56274 9.33333V7C6.56274 6.75838 6.75862 6.5625 7.00024 6.5625Z" fill="white"/>
<path fill-rule="evenodd" clip-rule="evenodd" d="M9.33359 6.5625C9.57521 6.5625 9.77109 6.75838 9.77109 7V9.33333C9.77109 9.57496 9.57521 9.77083 9.33359 9.77083C9.09196 9.77083 8.89609 9.57496 8.89609 9.33333V7C8.89609 6.75838 9.09196 6.5625 9.33359 6.5625Z" fill="white"/>
</svg>
