<svg width="24" height="24" viewBox="0 0 24 24" fill="none" xmlns="http://www.w3.org/2000/svg">
<path fill-rule="evenodd" clip-rule="evenodd" d="M5.6989 7L10.0975 2.78467C11.1612 1.7653 12.8393 1.7653 13.903 2.78467L18.3016 7H20.8472C21.4558 7 21.9233 7.53899 21.8372 8.14142L20.3682 18.4243C20.1571 19.9022 18.8913 21 17.3984 21H6.60214C5.10919 21 3.84343 19.9022 3.63229 18.4243L2.16331 8.14142C2.07725 7.53899 2.54471 7 3.15326 7H5.6989ZM11.1354 3.86766C11.6189 3.4043 12.3816 3.4043 12.8651 3.86766L16.1337 7H7.86682L11.1354 3.86766ZM3.72977 8.5L5.11722 18.2121C5.22278 18.9511 5.85567 19.5 6.60214 19.5H17.3984C18.1448 19.5 18.7777 18.9511 18.8833 18.2121L20.2707 8.5H3.72977Z" fill="black"/>
<path fill-rule="evenodd" clip-rule="evenodd" d="M8.00024 11.25C8.41446 11.25 8.75024 11.5858 8.75024 12V16C8.75024 16.4142 8.41446 16.75 8.00024 16.75C7.58603 16.75 7.25024 16.4142 7.25024 16V12C7.25024 11.5858 7.58603 11.25 8.00024 11.25Z" fill="black"/>
<path fill-rule="evenodd" clip-rule="evenodd" d="M12.0002 11.25C12.4145 11.25 12.7502 11.5858 12.7502 12V16C12.7502 16.4142 12.4145 16.75 12.0002 16.75C11.586 16.75 11.2502 16.4142 11.2502 16V12C11.2502 11.5858 11.586 11.25 12.0002 11.25Z" fill="black"/>
<path fill-rule="evenodd" clip-rule="evenodd" d="M16.0002 11.25C16.4145 11.25 16.7502 11.5858 16.7502 12V16C16.7502 16.4142 16.4145 16.75 16.0002 16.75C15.586 16.75 15.2502 16.4142 15.2502 16V12C15.2502 11.5858 15.586 11.25 16.0002 11.25Z" fill="black"/>
</svg>
