<svg width="24" height="24" viewBox="0 0 24 24" fill="none" xmlns="http://www.w3.org/2000/svg">
<path fill-rule="evenodd" clip-rule="evenodd" d="M12.0002 10.5C13.9332 10.5 15.5002 8.933 15.5002 7C15.5002 5.067 13.9332 3.5 12.0002 3.5C10.0672 3.5 8.50024 5.067 8.50024 7C8.50024 8.933 10.0672 10.5 12.0002 10.5ZM12.0002 12C14.7617 12 17.0002 9.76142 17.0002 7C17.0002 4.23858 14.7617 2 12.0002 2C9.23882 2 7.00024 4.23858 7.00024 7C7.00024 9.76142 9.23882 12 12.0002 12Z" fill="black"/>
<path fill-rule="evenodd" clip-rule="evenodd" d="M9.00024 15.75C6.65303 15.75 4.75024 17.6528 4.75024 20V21C4.75024 21.4142 4.41446 21.75 4.00024 21.75C3.58603 21.75 3.25024 21.4142 3.25024 21V20C3.25024 16.8244 5.82461 14.25 9.00024 14.25H15.0002C18.1759 14.25 20.7502 16.8244 20.7502 20V21C20.7502 21.4142 20.4145 21.75 20.0002 21.75C19.586 21.75 19.2502 21.4142 19.2502 21V20C19.2502 17.6528 17.3475 15.75 15.0002 15.75H9.00024Z" fill="black"/>
</svg>
